<mxfile host="app.diagrams.net" agent="Mozilla/5.0 (X11; Ubuntu; Linux x86_64; rv:125.0) Gecko/20100101 Firefox/125.0" version="24.7.16">
  <diagram name="PÃ¡gina-1" id="uqcgaNED3w99tRB-ZJ2y">
    <mxGraphModel dx="1770" dy="545" grid="1" gridSize="10" guides="1" tooltips="1" connect="1" arrows="1" fold="1" page="1" pageScale="1" pageWidth="827" pageHeight="1169" math="0" shadow="0">
      <root>
        <mxCell id="0" />
        <mxCell id="1" parent="0" />
        <mxCell id="S8AHv5wbzguiilqgEg7a-15" style="edgeStyle=orthogonalEdgeStyle;rounded=0;orthogonalLoop=1;jettySize=auto;html=1;entryX=0.5;entryY=0;entryDx=0;entryDy=0;" edge="1" parent="1" source="3" target="S8AHv5wbzguiilqgEg7a-11">
          <mxGeometry relative="1" as="geometry" />
        </mxCell>
        <mxCell id="S8AHv5wbzguiilqgEg7a-16" style="edgeStyle=orthogonalEdgeStyle;rounded=0;orthogonalLoop=1;jettySize=auto;html=1;entryX=0.5;entryY=0;entryDx=0;entryDy=0;" edge="1" parent="1" source="3" target="S8AHv5wbzguiilqgEg7a-12">
          <mxGeometry relative="1" as="geometry" />
        </mxCell>
        <mxCell id="3" value="FORWARD" style="rounded=1;arcSize=40;strokeWidth=2" parent="1" vertex="1">
          <mxGeometry x="8" y="72" width="75" height="35" as="geometry" />
        </mxCell>
        <mxCell id="S8AHv5wbzguiilqgEg7a-14" style="edgeStyle=orthogonalEdgeStyle;rounded=0;orthogonalLoop=1;jettySize=auto;html=1;entryX=0.5;entryY=1;entryDx=0;entryDy=0;" edge="1" parent="1" source="4" target="S8AHv5wbzguiilqgEg7a-11">
          <mxGeometry relative="1" as="geometry">
            <mxPoint x="420" y="198" as="targetPoint" />
            <Array as="points">
              <mxPoint x="308" y="198" />
            </Array>
          </mxGeometry>
        </mxCell>
        <mxCell id="S8AHv5wbzguiilqgEg7a-17" style="edgeStyle=orthogonalEdgeStyle;rounded=0;orthogonalLoop=1;jettySize=auto;html=1;entryX=0.5;entryY=1;entryDx=0;entryDy=0;" edge="1" parent="1" source="4" target="S8AHv5wbzguiilqgEg7a-12">
          <mxGeometry relative="1" as="geometry" />
        </mxCell>
        <mxCell id="S8AHv5wbzguiilqgEg7a-18" style="edgeStyle=orthogonalEdgeStyle;rounded=0;orthogonalLoop=1;jettySize=auto;html=1;entryX=0.5;entryY=1;entryDx=0;entryDy=0;" edge="1" parent="1" source="4" target="S8AHv5wbzguiilqgEg7a-13">
          <mxGeometry relative="1" as="geometry">
            <Array as="points">
              <mxPoint x="-22" y="198" />
              <mxPoint x="-22" y="180" />
              <mxPoint x="-22" y="180" />
            </Array>
          </mxGeometry>
        </mxCell>
        <mxCell id="S8AHv5wbzguiilqgEg7a-20" style="edgeStyle=orthogonalEdgeStyle;rounded=0;orthogonalLoop=1;jettySize=auto;html=1;entryX=0.5;entryY=1;entryDx=0;entryDy=0;" edge="1" parent="1" source="4" target="5">
          <mxGeometry relative="1" as="geometry" />
        </mxCell>
        <mxCell id="4" value="BACK" style="rounded=1;arcSize=40;strokeWidth=2" parent="1" vertex="1">
          <mxGeometry x="8" y="180" width="75" height="35" as="geometry" />
        </mxCell>
        <mxCell id="S8AHv5wbzguiilqgEg7a-21" style="edgeStyle=orthogonalEdgeStyle;rounded=0;orthogonalLoop=1;jettySize=auto;html=1;" edge="1" parent="1" source="5">
          <mxGeometry relative="1" as="geometry">
            <mxPoint x="83" y="100" as="targetPoint" />
            <Array as="points">
              <mxPoint x="168" y="100" />
              <mxPoint x="83" y="100" />
            </Array>
          </mxGeometry>
        </mxCell>
        <mxCell id="5" value="TURN" style="rounded=1;arcSize=40;strokeWidth=2" parent="1" vertex="1">
          <mxGeometry x="130" y="120" width="75" height="35" as="geometry" />
        </mxCell>
        <mxCell id="8" value="" style="curved=1;startArrow=none;;exitX=0.5;exitY=1;entryX=0.5;entryY=0;" parent="1" source="3" target="4" edge="1">
          <mxGeometry relative="1" as="geometry">
            <Array as="points" />
          </mxGeometry>
        </mxCell>
        <mxCell id="S8AHv5wbzguiilqgEg7a-26" style="edgeStyle=orthogonalEdgeStyle;rounded=0;orthogonalLoop=1;jettySize=auto;html=1;entryX=0.5;entryY=1;entryDx=0;entryDy=0;" edge="1" parent="1" source="S8AHv5wbzguiilqgEg7a-11" target="4">
          <mxGeometry relative="1" as="geometry">
            <Array as="points">
              <mxPoint x="400" y="137" />
              <mxPoint x="400" y="235" />
              <mxPoint x="46" y="235" />
            </Array>
          </mxGeometry>
        </mxCell>
        <mxCell id="S8AHv5wbzguiilqgEg7a-11" value="SPIRAL" style="rounded=1;arcSize=40;strokeWidth=2" vertex="1" parent="1">
          <mxGeometry x="270" y="120" width="75" height="35" as="geometry" />
        </mxCell>
        <mxCell id="S8AHv5wbzguiilqgEg7a-22" style="edgeStyle=orthogonalEdgeStyle;rounded=0;orthogonalLoop=1;jettySize=auto;html=1;entryX=0.25;entryY=0;entryDx=0;entryDy=0;exitX=0;exitY=0.5;exitDx=0;exitDy=0;" edge="1" parent="1" source="S8AHv5wbzguiilqgEg7a-12" target="3">
          <mxGeometry relative="1" as="geometry">
            <mxPoint x="-170" y="138" as="sourcePoint" />
            <Array as="points">
              <mxPoint x="-240" y="138" />
              <mxPoint x="-240" y="52" />
              <mxPoint x="27" y="52" />
            </Array>
          </mxGeometry>
        </mxCell>
        <mxCell id="S8AHv5wbzguiilqgEg7a-12" value="DISTURN" style="rounded=1;arcSize=40;strokeWidth=2" vertex="1" parent="1">
          <mxGeometry x="-160" y="120" width="75" height="35" as="geometry" />
        </mxCell>
        <mxCell id="S8AHv5wbzguiilqgEg7a-25" style="edgeStyle=orthogonalEdgeStyle;rounded=0;orthogonalLoop=1;jettySize=auto;html=1;entryX=0;entryY=0.75;entryDx=0;entryDy=0;" edge="1" parent="1" source="S8AHv5wbzguiilqgEg7a-13" target="3">
          <mxGeometry relative="1" as="geometry" />
        </mxCell>
        <mxCell id="S8AHv5wbzguiilqgEg7a-13" value="STARTURN" style="rounded=1;arcSize=40;strokeWidth=2" vertex="1" parent="1">
          <mxGeometry x="-60" y="120" width="75" height="35" as="geometry" />
        </mxCell>
      </root>
    </mxGraphModel>
  </diagram>
</mxfile>
